<?xml version="1.0" encoding="UTF-8" standalone="no"?>
<!DOCTYPE svg PUBLIC "-//W3C//DTD SVG 1.1//EN" "http://www.w3.org/Graphics/SVG/1.1/DTD/svg11.dtd">
<svg width="100%" height="100%" viewBox="0 0 512 512" version="1.1" xmlns="http://www.w3.org/2000/svg" xmlns:xlink="http://www.w3.org/1999/xlink" xml:space="preserve" xmlns:serif="http://www.serif.com/" style="fill-rule:evenodd;clip-rule:evenodd;stroke-linejoin:round;stroke-miterlimit:2;">
    <g>
        <path d="M167.314,14.993C167.314,6.712 160.603,0 152.333,0L146.819,0C138.547,0 131.837,6.712 131.837,14.993L131.837,56.46L167.315,56.46L167.315,14.993L167.314,14.993Z" style="fill:rgb(255,139,0);fill-rule:nonzero;stroke:black;stroke-width:6.68px;"/>
        <path d="M238.261,14.993C238.261,6.712 231.549,0 223.279,0L217.775,0C209.505,0 202.793,6.712 202.793,14.993L202.793,56.46L238.261,56.46L238.261,14.993Z" style="fill:rgb(255,139,0);fill-rule:nonzero;stroke:black;stroke-width:6.68px;"/>
        <path d="M309.208,14.993C309.208,6.712 302.496,0 294.226,0L288.722,0C280.451,0 273.74,6.712 273.74,14.993L273.74,56.46L309.208,56.46L309.208,14.993Z" style="fill:rgb(255,139,0);fill-rule:nonzero;stroke:black;stroke-width:6.68px;"/>
        <path d="M380.164,14.993C380.164,6.712 373.452,0 365.182,0L359.668,0C351.398,0 344.686,6.712 344.686,14.993L344.686,56.46L380.164,56.46L380.164,14.993Z" style="fill:rgb(255,139,0);fill-rule:nonzero;stroke:black;stroke-width:6.68px;"/>
        <path d="M131.836,497.007C131.836,505.289 138.547,512 146.818,512L152.332,512C160.602,512 167.313,505.289 167.313,497.007L167.313,455.55L131.835,455.55L131.835,497.007L131.836,497.007Z" style="fill:rgb(255,139,0);fill-rule:nonzero;stroke:black;stroke-width:6.68px;"/>
        <path d="M202.793,497.007C202.793,505.289 209.505,512 217.775,512L223.279,512C231.549,512 238.261,505.289 238.261,497.007L238.261,455.55L202.793,455.55L202.793,497.007Z" style="fill:rgb(255,139,0);fill-rule:nonzero;stroke:black;stroke-width:6.68px;"/>
        <path d="M273.739,497.007C273.739,505.289 280.45,512 288.721,512L294.225,512C302.495,512 309.207,505.289 309.207,497.007L309.207,455.55L273.739,455.55L273.739,497.007Z" style="fill:rgb(255,139,0);fill-rule:nonzero;stroke:black;stroke-width:6.68px;"/>
        <path d="M344.685,497.007C344.685,505.289 351.397,512 359.667,512L365.181,512C373.451,512 380.163,505.289 380.163,497.007L380.163,455.55L344.685,455.55L344.685,497.007Z" style="fill:rgb(255,139,0);fill-rule:nonzero;stroke:black;stroke-width:6.68px;"/>
        <path d="M497.018,131.836L455.55,131.836L455.55,167.314L497.017,167.314C505.287,167.314 511.999,160.602 511.999,152.321L511.999,146.828C512,138.548 505.288,131.836 497.018,131.836Z" style="fill:rgb(255,139,0);fill-rule:nonzero;stroke:black;stroke-width:6.68px;"/>
        <path d="M497.018,202.793L455.55,202.793L455.55,238.261L497.017,238.261C505.287,238.261 511.999,231.549 511.999,223.279L511.999,217.785C512,209.504 505.288,202.793 497.018,202.793Z" style="fill:rgb(255,139,0);fill-rule:nonzero;stroke:black;stroke-width:6.68px;"/>
        <path d="M497.018,273.739L455.55,273.739L455.55,309.207L497.017,309.207C505.287,309.207 511.999,302.496 511.999,294.215L511.999,288.721C512,280.451 505.288,273.739 497.018,273.739Z" style="fill:rgb(255,139,0);fill-rule:nonzero;stroke:black;stroke-width:6.68px;"/>
        <path d="M497.018,344.685L455.55,344.685L455.55,380.164L497.017,380.164C505.287,380.164 511.999,373.452 511.999,365.171L511.999,359.678C512,351.397 505.288,344.685 497.018,344.685Z" style="fill:rgb(255,139,0);fill-rule:nonzero;stroke:black;stroke-width:6.68px;"/>
        <path d="M0,146.829L0,152.322C0,160.603 6.712,167.315 14.982,167.315L56.46,167.315L56.46,131.837L14.982,131.837C6.712,131.836 0,138.548 0,146.829Z" style="fill:rgb(255,139,0);fill-rule:nonzero;stroke:black;stroke-width:6.68px;"/>
        <path d="M0,217.785L0,223.279C0,231.549 6.712,238.261 14.982,238.261L56.46,238.261L56.46,202.793L14.982,202.793C6.712,202.793 0,209.504 0,217.785Z" style="fill:rgb(255,139,0);fill-rule:nonzero;stroke:black;stroke-width:6.68px;"/>
        <path d="M0,288.721L0,294.215C0,302.496 6.712,309.207 14.982,309.207L56.46,309.207L56.46,273.739L14.982,273.739C6.712,273.739 0,280.451 0,288.721Z" style="fill:rgb(255,139,0);fill-rule:nonzero;stroke:black;stroke-width:6.68px;"/>
        <path d="M0,359.679L0,365.172C0,373.453 6.712,380.165 14.982,380.165L56.46,380.165L56.46,344.686L14.982,344.686C6.712,344.685 0,351.397 0,359.679Z" style="fill:rgb(255,139,0);fill-rule:nonzero;stroke:black;stroke-width:6.68px;"/>
        <path d="M78.628,433.382L433.381,433.382L433.381,78.629L78.628,78.629L78.628,433.382ZM204.858,143.267L314.122,143.267L271.829,227.853L356.415,227.853L201.337,389.973L240.109,287.761L190.763,287.761L204.858,143.267Z" style="fill:rgb(255,139,0);fill-rule:nonzero;stroke:black;stroke-width:6.68px;"/>
    </g>
</svg>
