<!--?xml version="1.0" encoding="utf-8"?-->
<!-- Generator: Adobe Illustrator 18.1.1, SVG Export Plug-In . SVG Version: 6.00 Build 0)  -->

<svg version="1.1" id="_x32_" xmlns="http://www.w3.org/2000/svg" xmlns:xlink="http://www.w3.org/1999/xlink" x="0px" y="0px" viewBox="0 0 512 512" style="width: 256px; height: 256px; opacity: 1;" xml:space="preserve">
<style type="text/css">
	.st0{fill:#4B4B4B;}
</style>
<g>
	<path class="st0" d="M388.999,0H123.001c0,0,0,18.32,0,44.187h265.998C388.999,18.32,388.999,0,388.999,0z" style="fill: rgb(75, 75, 75);"></path>
	<path class="st0" d="M388.999,66.924h-21.621H144.61h-21.609h-96.54v20.771c0,0.074,0,35.185,0,81.168
		c-0.061,15.178,4.15,29.252,11.259,40.815c10.75,17.483,27.141,29.179,44.491,36.652c17.483,7.486,36.325,10.944,54.281,10.969
		v-2.209c27.505,58.14,87.672,62.885,87.672,112.07c0,63.698,9.33,75.539-56.211,103.65V512h176.094v-41.19
		c-65.577-28.112-56.211-39.953-56.211-103.65c0-49.185,60.166-53.93,87.671-112.07v2.209c17.956-0.025,36.798-3.482,54.282-10.969
		c17.349-7.473,33.728-19.169,44.49-36.652c7.098-11.563,11.308-25.636,11.26-40.815c0-45.983,0-81.094,0-81.168V66.924H388.999z
		 M87.95,202.507c-6.502-4.211-11.465-9.112-14.766-14.511c-3.252-5.411-5.131-11.295-5.181-19.133c0-24.532,0-45.729,0-60.396
		h54.998c0,29.579,0,58.928,0,78.862c0,10.155,0.838,19.158,2.026,27.65C111.608,213.39,97.935,209.07,87.95,202.507z
		 M443.996,168.863c-0.061,7.838-1.93,13.722-5.181,19.133c-3.3,5.399-8.274,10.3-14.766,14.511
		c-9.996,6.563-23.658,10.883-37.089,12.472c1.202-8.493,2.039-17.495,2.039-27.65c0-19.934,0-49.283,0-78.862h54.997
		C443.996,123.134,443.996,144.331,443.996,168.863z" style="fill: rgb(75, 75, 75);"></path>
</g>
</svg>
